<svg width="628" height="265" viewBox="0 0 628 265" fill="none" xmlns="http://www.w3.org/2000/svg">
<g clip-path="url(#clip0_809_3)">
<path d="M116.464 217.539V121.5L91.7398 134.007C47.8426 156.342 20.596 197.884 20.596 243H2.43164V133.114C2.43164 97.3787 25.6416 64.3235 62.475 48.6893L116.968 25.4613V121.5L141.692 108.993C185.589 86.6581 212.836 45.1158 212.836 3.21865e-05H231V109.886C231 145.621 207.79 178.677 170.957 194.311L116.464 217.539Z" fill="#4F46E5"/>
<path d="M230.545 33.1364V16.9091H307V33.1364H278.5V110H259.045V33.1364H230.545ZM329.636 111.318C325.182 111.318 321.212 110.545 317.727 109C314.242 107.424 311.485 105.106 309.455 102.045C307.455 98.9545 306.455 95.1061 306.455 90.5C306.455 86.6212 307.167 83.3636 308.591 80.7273C310.015 78.0909 311.955 75.9697 314.409 74.3636C316.864 72.7576 319.652 71.5455 322.773 70.7273C325.924 69.9091 329.227 69.3333 332.682 69C336.742 68.5758 340.015 68.1818 342.5 67.8182C344.985 67.4242 346.788 66.8485 347.909 66.0909C349.03 65.3333 349.591 64.2121 349.591 62.7273V62.4545C349.591 59.5758 348.682 57.3485 346.864 55.7727C345.076 54.197 342.53 53.4091 339.227 53.4091C335.742 53.4091 332.97 54.1818 330.909 55.7273C328.848 57.2424 327.485 59.1515 326.818 61.4545L308.909 60C309.818 55.7576 311.606 52.0909 314.273 49C316.939 45.8788 320.379 43.4848 324.591 41.8182C328.833 40.1212 333.742 39.2727 339.318 39.2727C343.197 39.2727 346.909 39.7273 350.455 40.6364C354.03 41.5455 357.197 42.9545 359.955 44.8636C362.742 46.7727 364.939 49.2273 366.545 52.2273C368.152 55.197 368.955 58.7576 368.955 62.9091V110H350.591V100.318H350.045C348.924 102.5 347.424 104.424 345.545 106.091C343.667 107.727 341.409 109.015 338.773 109.955C336.136 110.864 333.091 111.318 329.636 111.318ZM335.182 97.9545C338.03 97.9545 340.545 97.3939 342.727 96.2727C344.909 95.1212 346.621 93.5758 347.864 91.6364C349.106 89.697 349.727 87.5 349.727 85.0455V77.6364C349.121 78.0303 348.288 78.3939 347.227 78.7273C346.197 79.0303 345.03 79.3182 343.727 79.5909C342.424 79.8333 341.121 80.0606 339.818 80.2727C338.515 80.4545 337.333 80.6212 336.273 80.7727C334 81.1061 332.015 81.6364 330.318 82.3636C328.621 83.0909 327.303 84.0758 326.364 85.3182C325.424 86.5303 324.955 88.0455 324.955 89.8636C324.955 92.5 325.909 94.5152 327.818 95.9091C329.758 97.2727 332.212 97.9545 335.182 97.9545ZM442.068 60.0909L424.341 61.1818C424.038 59.6667 423.386 58.303 422.386 57.0909C421.386 55.8485 420.068 54.8636 418.432 54.1364C416.826 53.3788 414.902 53 412.659 53C409.659 53 407.129 53.6364 405.068 54.9091C403.008 56.1515 401.977 57.8182 401.977 59.9091C401.977 61.5758 402.644 62.9848 403.977 64.1364C405.311 65.2879 407.598 66.2121 410.841 66.9091L423.477 69.4545C430.265 70.8485 435.326 73.0909 438.659 76.1818C441.992 79.2727 443.659 83.3333 443.659 88.3636C443.659 92.9394 442.311 96.9545 439.614 100.409C436.947 103.864 433.28 106.561 428.614 108.5C423.977 110.409 418.629 111.364 412.568 111.364C403.326 111.364 395.962 109.439 390.477 105.591C385.023 101.712 381.826 96.4394 380.886 89.7727L399.932 88.7727C400.508 91.5909 401.902 93.7424 404.114 95.2273C406.326 96.6818 409.159 97.4091 412.614 97.4091C416.008 97.4091 418.735 96.7576 420.795 95.4545C422.886 94.1212 423.947 92.4091 423.977 90.3182C423.947 88.5606 423.205 87.1212 421.75 86C420.295 84.8485 418.053 83.9697 415.023 83.3636L402.932 80.9545C396.114 79.5909 391.038 77.2273 387.705 73.8636C384.402 70.5 382.75 66.2121 382.75 61C382.75 56.5151 383.962 52.6515 386.386 49.4091C388.841 46.1667 392.28 43.6667 396.705 41.9091C401.159 40.1515 406.371 39.2727 412.341 39.2727C421.159 39.2727 428.098 41.1364 433.159 44.8636C438.25 48.5909 441.22 53.6667 442.068 60.0909ZM473.398 89.9091L473.443 66.6818H476.261L498.625 40.1818H520.852L490.807 75.2727H486.216L473.398 89.9091ZM455.852 110V16.9091H475.216V110H455.852ZM499.489 110L478.943 79.5909L491.852 65.9091L522.17 110H499.489Z" fill="black"/>
<path d="M284.591 145.682C284.227 142.015 282.667 139.167 279.909 137.136C277.152 135.106 273.409 134.091 268.682 134.091C265.47 134.091 262.758 134.545 260.545 135.455C258.333 136.333 256.636 137.561 255.455 139.136C254.303 140.712 253.727 142.5 253.727 144.5C253.667 146.167 254.015 147.621 254.773 148.864C255.561 150.106 256.636 151.182 258 152.091C259.364 152.97 260.939 153.742 262.727 154.409C264.515 155.045 266.424 155.591 268.455 156.045L276.818 158.045C280.879 158.955 284.606 160.167 288 161.682C291.394 163.197 294.333 165.061 296.818 167.273C299.303 169.485 301.227 172.091 302.591 175.091C303.985 178.091 304.697 181.53 304.727 185.409C304.697 191.106 303.242 196.045 300.364 200.227C297.515 204.379 293.394 207.606 288 209.909C282.636 212.182 276.167 213.318 268.591 213.318C261.076 213.318 254.53 212.167 248.955 209.864C243.409 207.561 239.076 204.152 235.955 199.636C232.864 195.091 231.242 189.47 231.091 182.773H250.136C250.348 185.894 251.242 188.5 252.818 190.591C254.424 192.652 256.561 194.212 259.227 195.273C261.924 196.303 264.97 196.818 268.364 196.818C271.697 196.818 274.591 196.333 277.045 195.364C279.53 194.394 281.455 193.045 282.818 191.318C284.182 189.591 284.864 187.606 284.864 185.364C284.864 183.273 284.242 181.515 283 180.091C281.788 178.667 280 177.455 277.636 176.455C275.303 175.455 272.439 174.545 269.045 173.727L258.909 171.182C251.061 169.273 244.864 166.288 240.318 162.227C235.773 158.167 233.515 152.697 233.545 145.818C233.515 140.182 235.015 135.258 238.045 131.045C241.106 126.833 245.303 123.545 250.636 121.182C255.97 118.818 262.03 117.636 268.818 117.636C275.727 117.636 281.758 118.818 286.909 121.182C292.091 123.545 296.121 126.833 299 131.045C301.879 135.258 303.364 140.136 303.455 145.682H284.591ZM363.739 238.182V200.818H363.148C362.239 202.758 360.951 204.682 359.284 206.591C357.648 208.47 355.511 210.03 352.875 211.273C350.269 212.515 347.087 213.136 343.33 213.136C338.027 213.136 333.223 211.773 328.92 209.045C324.648 206.288 321.254 202.242 318.739 196.909C316.254 191.545 315.011 184.97 315.011 177.182C315.011 169.182 316.299 162.53 318.875 157.227C321.451 151.894 324.875 147.909 329.148 145.273C333.451 142.606 338.163 141.273 343.284 141.273C347.193 141.273 350.451 141.939 353.057 143.273C355.693 144.576 357.814 146.212 359.42 148.182C361.057 150.121 362.299 152.03 363.148 153.909H363.966V142.182H383.057V238.182H363.739ZM349.466 197.727C352.587 197.727 355.223 196.879 357.375 195.182C359.557 193.455 361.223 191.045 362.375 187.955C363.557 184.864 364.148 181.242 364.148 177.091C364.148 172.939 363.572 169.333 362.42 166.273C361.269 163.212 359.602 160.848 357.42 159.182C355.239 157.515 352.587 156.682 349.466 156.682C346.284 156.682 343.602 157.545 341.42 159.273C339.239 161 337.587 163.394 336.466 166.455C335.345 169.515 334.784 173.061 334.784 177.091C334.784 181.152 335.345 184.742 336.466 187.864C337.617 190.955 339.269 193.379 341.42 195.136C343.602 196.864 346.284 197.727 349.466 197.727ZM443.375 182.273V142.182H462.739V212H444.148V199.318H443.42C441.845 203.409 439.223 206.697 435.557 209.182C431.92 211.667 427.481 212.909 422.239 212.909C417.572 212.909 413.466 211.848 409.92 209.727C406.375 207.606 403.602 204.591 401.602 200.682C399.633 196.773 398.633 192.091 398.602 186.636V142.182H417.966V183.182C417.996 187.303 419.102 190.561 421.284 192.955C423.466 195.348 426.39 196.545 430.057 196.545C432.39 196.545 434.572 196.015 436.602 194.955C438.633 193.864 440.269 192.258 441.511 190.136C442.784 188.015 443.405 185.394 443.375 182.273ZM498.136 213.318C493.682 213.318 489.712 212.545 486.227 211C482.742 209.424 479.985 207.106 477.955 204.045C475.955 200.955 474.955 197.106 474.955 192.5C474.955 188.621 475.667 185.364 477.091 182.727C478.515 180.091 480.455 177.97 482.909 176.364C485.364 174.758 488.152 173.545 491.273 172.727C494.424 171.909 497.727 171.333 501.182 171C505.242 170.576 508.515 170.182 511 169.818C513.485 169.424 515.288 168.848 516.409 168.091C517.53 167.333 518.091 166.212 518.091 164.727V164.455C518.091 161.576 517.182 159.348 515.364 157.773C513.576 156.197 511.03 155.409 507.727 155.409C504.242 155.409 501.47 156.182 499.409 157.727C497.348 159.242 495.985 161.152 495.318 163.455L477.409 162C478.318 157.758 480.106 154.091 482.773 151C485.439 147.879 488.879 145.485 493.091 143.818C497.333 142.121 502.242 141.273 507.818 141.273C511.697 141.273 515.409 141.727 518.955 142.636C522.53 143.545 525.697 144.955 528.455 146.864C531.242 148.773 533.439 151.227 535.045 154.227C536.652 157.197 537.455 160.758 537.455 164.909V212H519.091V202.318H518.545C517.424 204.5 515.924 206.424 514.045 208.091C512.167 209.727 509.909 211.015 507.273 211.955C504.636 212.864 501.591 213.318 498.136 213.318ZM503.682 199.955C506.53 199.955 509.045 199.394 511.227 198.273C513.409 197.121 515.121 195.576 516.364 193.636C517.606 191.697 518.227 189.5 518.227 187.045V179.636C517.621 180.03 516.788 180.394 515.727 180.727C514.697 181.03 513.53 181.318 512.227 181.591C510.924 181.833 509.621 182.061 508.318 182.273C507.015 182.455 505.833 182.621 504.773 182.773C502.5 183.106 500.515 183.636 498.818 184.364C497.121 185.091 495.803 186.076 494.864 187.318C493.924 188.53 493.455 190.045 493.455 191.864C493.455 194.5 494.409 196.515 496.318 197.909C498.258 199.273 500.712 199.955 503.682 199.955ZM578.205 213.136C572.902 213.136 568.098 211.773 563.795 209.045C559.523 206.288 556.129 202.242 553.614 196.909C551.129 191.545 549.886 184.97 549.886 177.182C549.886 169.182 551.174 162.53 553.75 157.227C556.326 151.894 559.75 147.909 564.023 145.273C568.326 142.606 573.038 141.273 578.159 141.273C582.068 141.273 585.326 141.939 587.932 143.273C590.568 144.576 592.689 146.212 594.295 148.182C595.932 150.121 597.174 152.03 598.023 153.909H598.614V118.909H617.932V212H598.841V200.818H598.023C597.114 202.758 595.826 204.682 594.159 206.591C592.523 208.47 590.386 210.03 587.75 211.273C585.144 212.515 581.962 213.136 578.205 213.136ZM584.341 197.727C587.462 197.727 590.098 196.879 592.25 195.182C594.432 193.455 596.098 191.045 597.25 187.955C598.432 184.864 599.023 181.242 599.023 177.091C599.023 172.939 598.447 169.333 597.295 166.273C596.144 163.212 594.477 160.848 592.295 159.182C590.114 157.515 587.462 156.682 584.341 156.682C581.159 156.682 578.477 157.545 576.295 159.273C574.114 161 572.462 163.394 571.341 166.455C570.22 169.515 569.659 173.061 569.659 177.091C569.659 181.152 570.22 184.742 571.341 187.864C572.492 190.955 574.144 193.379 576.295 195.136C578.477 196.864 581.159 197.727 584.341 197.727Z" fill="black"/>
</g>
<defs>
<clipPath id="clip0_809_3">
<rect width="628" height="265" fill="white"/>
</clipPath>
</defs>
</svg>
